<?xml version="1.0" encoding="UTF-8" standalone="no"?><svg xmlns="http://www.w3.org/2000/svg" xmlns:xlink="http://www.w3.org/1999/xlink" contentScriptType="application/ecmascript" contentStyleType="text/css" height="421px" preserveAspectRatio="none" style="width:311px;height:421px;" version="1.1" viewBox="0 0 311 421" width="311px" zoomAndPan="magnify"><defs><filter height="300%" id="fok7f886gyq66" width="300%" x="-1" y="-1"><feGaussianBlur result="blurOut" stdDeviation="2.0"/><feColorMatrix in="blurOut" result="blurOut2" type="matrix" values="0 0 0 0 0 0 0 0 0 0 0 0 0 0 0 0 0 0 .4 0"/><feOffset dx="4.0" dy="4.0" in="blurOut2" result="blurOut3"/><feBlend in="SourceGraphic" in2="blurOut3" mode="normal"/></filter></defs><g><!--MD5=[f84e857de5a9ca5678aed72e3e98d0a5]
class Etudiant--><rect codeLine="1" fill="#FEFECE" filter="url(#fok7f886gyq66)" height="99.2188" id="Etudiant" style="stroke:#A80036;stroke-width:1.5;" width="134" x="7" y="7"/><ellipse cx="44.05" cy="23" fill="#ADD1B2" rx="11" ry="11" style="stroke:#A80036;stroke-width:1.0;"/><path d="M47.0188,28.6406 Q46.4406,28.9375 45.8,29.0781 Q45.1594,29.2344 44.4563,29.2344 Q41.9563,29.2344 40.6281,27.5938 Q39.3156,25.9375 39.3156,22.8125 Q39.3156,19.6875 40.6281,18.0313 Q41.9563,16.375 44.4563,16.375 Q45.1594,16.375 45.8,16.5313 Q46.4563,16.6875 47.0188,16.9844 L47.0188,19.7031 Q46.3938,19.125 45.8,18.8594 Q45.2063,18.5781 44.5813,18.5781 Q43.2375,18.5781 42.55,19.6563 Q41.8625,20.7188 41.8625,22.8125 Q41.8625,24.9063 42.55,25.9844 Q43.2375,27.0469 44.5813,27.0469 Q45.2063,27.0469 45.8,26.7813 Q46.3938,26.5 47.0188,25.9219 L47.0188,28.6406 Z " fill="#000000"/><text fill="#000000" font-family="sans-serif" font-size="12" lengthAdjust="spacingAndGlyphs" textLength="53" x="62.95" y="27.1543">Etudiant</text><line style="stroke:#A80036;stroke-width:1.5;" x1="8" x2="140" y1="39" y2="39"/><text fill="#000000" font-family="sans-serif" font-size="11" lengthAdjust="spacingAndGlyphs" textLength="56" x="13" y="53.2104">String INE</text><text fill="#000000" font-family="sans-serif" font-size="11" lengthAdjust="spacingAndGlyphs" textLength="63" x="13" y="66.0151">String nom</text><text fill="#000000" font-family="sans-serif" font-size="11" lengthAdjust="spacingAndGlyphs" textLength="82" x="13" y="78.8198">String prenom</text><text fill="#000000" font-family="sans-serif" font-size="11" lengthAdjust="spacingAndGlyphs" textLength="122" x="13" y="91.6245">String dateNaissance</text><line style="stroke:#A80036;stroke-width:1.5;" x1="8" x2="140" y1="98.2188" y2="98.2188"/><!--MD5=[69268330f0a536610f2ee0ac17577904]
class Examen--><rect codeLine="9" fill="#FEFECE" filter="url(#fok7f886gyq66)" height="73.6094" id="Examen" style="stroke:#A80036;stroke-width:1.5;" width="81" x="98.5" y="334"/><ellipse cx="113.5" cy="350" fill="#ADD1B2" rx="11" ry="11" style="stroke:#A80036;stroke-width:1.0;"/><path d="M116.4688,355.6406 Q115.8906,355.9375 115.25,356.0781 Q114.6094,356.2344 113.9063,356.2344 Q111.4063,356.2344 110.0781,354.5938 Q108.7656,352.9375 108.7656,349.8125 Q108.7656,346.6875 110.0781,345.0313 Q111.4063,343.375 113.9063,343.375 Q114.6094,343.375 115.25,343.5313 Q115.9063,343.6875 116.4688,343.9844 L116.4688,346.7031 Q115.8438,346.125 115.25,345.8594 Q114.6563,345.5781 114.0313,345.5781 Q112.6875,345.5781 112,346.6563 Q111.3125,347.7188 111.3125,349.8125 Q111.3125,351.9063 112,352.9844 Q112.6875,354.0469 114.0313,354.0469 Q114.6563,354.0469 115.25,353.7813 Q115.8438,353.5 116.4688,352.9219 L116.4688,355.6406 Z " fill="#000000"/><text fill="#000000" font-family="sans-serif" font-size="12" lengthAdjust="spacingAndGlyphs" textLength="49" x="127.5" y="354.1543">Examen</text><line style="stroke:#A80036;stroke-width:1.5;" x1="99.5" x2="178.5" y1="366" y2="366"/><text fill="#000000" font-family="sans-serif" font-size="11" lengthAdjust="spacingAndGlyphs" textLength="63" x="104.5" y="380.2104">String date</text><text fill="#000000" font-family="sans-serif" font-size="11" lengthAdjust="spacingAndGlyphs" textLength="66" x="104.5" y="393.0151">double coef</text><line style="stroke:#A80036;stroke-width:1.5;" x1="99.5" x2="178.5" y1="399.6094" y2="399.6094"/><!--MD5=[7cea6f0a4c717861c8cea1cac6f647b9]
class Cour--><rect codeLine="15" fill="#FEFECE" filter="url(#fok7f886gyq66)" height="73.6094" id="Cour" style="stroke:#A80036;stroke-width:1.5;" width="97" x="190.5" y="183"/><ellipse cx="221.7" cy="199" fill="#ADD1B2" rx="11" ry="11" style="stroke:#A80036;stroke-width:1.0;"/><path d="M224.6688,204.6406 Q224.0906,204.9375 223.45,205.0781 Q222.8094,205.2344 222.1063,205.2344 Q219.6063,205.2344 218.2781,203.5938 Q216.9656,201.9375 216.9656,198.8125 Q216.9656,195.6875 218.2781,194.0313 Q219.6063,192.375 222.1063,192.375 Q222.8094,192.375 223.45,192.5313 Q224.1063,192.6875 224.6688,192.9844 L224.6688,195.7031 Q224.0438,195.125 223.45,194.8594 Q222.8563,194.5781 222.2313,194.5781 Q220.8875,194.5781 220.2,195.6563 Q219.5125,196.7188 219.5125,198.8125 Q219.5125,200.9063 220.2,201.9844 Q220.8875,203.0469 222.2313,203.0469 Q222.8563,203.0469 223.45,202.7813 Q224.0438,202.5 224.6688,201.9219 L224.6688,204.6406 Z " fill="#000000"/><text fill="#000000" font-family="sans-serif" font-size="12" lengthAdjust="spacingAndGlyphs" textLength="29" x="239.3" y="203.1543">Cour</text><line style="stroke:#A80036;stroke-width:1.5;" x1="191.5" x2="286.5" y1="215" y2="215"/><text fill="#000000" font-family="sans-serif" font-size="11" lengthAdjust="spacingAndGlyphs" textLength="61" x="196.5" y="229.2104">String titre</text><text fill="#000000" font-family="sans-serif" font-size="11" lengthAdjust="spacingAndGlyphs" textLength="85" x="196.5" y="242.0151">int codeModule</text><line style="stroke:#A80036;stroke-width:1.5;" x1="191.5" x2="286.5" y1="248.6094" y2="248.6094"/><!--MD5=[0ea76b077f2fe2b0557d144a0cdb3724]
class Enseignant--><rect codeLine="21" fill="#FEFECE" filter="url(#fok7f886gyq66)" height="73.6094" id="Enseignant" style="stroke:#A80036;stroke-width:1.5;" width="103" x="187.5" y="19.5"/><ellipse cx="202.5" cy="35.5" fill="#ADD1B2" rx="11" ry="11" style="stroke:#A80036;stroke-width:1.0;"/><path d="M205.4688,41.1406 Q204.8906,41.4375 204.25,41.5781 Q203.6094,41.7344 202.9063,41.7344 Q200.4063,41.7344 199.0781,40.0938 Q197.7656,38.4375 197.7656,35.3125 Q197.7656,32.1875 199.0781,30.5313 Q200.4063,28.875 202.9063,28.875 Q203.6094,28.875 204.25,29.0313 Q204.9063,29.1875 205.4688,29.4844 L205.4688,32.2031 Q204.8438,31.625 204.25,31.3594 Q203.6563,31.0781 203.0313,31.0781 Q201.6875,31.0781 201,32.1563 Q200.3125,33.2188 200.3125,35.3125 Q200.3125,37.4063 201,38.4844 Q201.6875,39.5469 203.0313,39.5469 Q203.6563,39.5469 204.25,39.2813 Q204.8438,39 205.4688,38.4219 L205.4688,41.1406 Z " fill="#000000"/><text fill="#000000" font-family="sans-serif" font-size="12" lengthAdjust="spacingAndGlyphs" textLength="71" x="216.5" y="39.6543">Enseignant</text><line style="stroke:#A80036;stroke-width:1.5;" x1="188.5" x2="289.5" y1="51.5" y2="51.5"/><text fill="#000000" font-family="sans-serif" font-size="11" lengthAdjust="spacingAndGlyphs" textLength="63" x="193.5" y="65.7104">String nom</text><text fill="#000000" font-family="sans-serif" font-size="11" lengthAdjust="spacingAndGlyphs" textLength="82" x="193.5" y="78.5151">String prenom</text><line style="stroke:#A80036;stroke-width:1.5;" x1="188.5" x2="289.5" y1="85.1094" y2="85.1094"/><!--MD5=[33fd2eb6bfcd1553391462b78f01f572]
class Noter--><rect codeLine="27" fill="#FEFECE" filter="url(#fok7f886gyq66)" height="60.8047" id="Noter" style="stroke:#A80036;stroke-width:1.5;" width="79" x="76.5" y="189.5"/><ellipse cx="96.9" cy="205.5" fill="#ADD1B2" rx="11" ry="11" style="stroke:#A80036;stroke-width:1.0;"/><path d="M99.8688,211.1406 Q99.2906,211.4375 98.65,211.5781 Q98.0094,211.7344 97.3063,211.7344 Q94.8063,211.7344 93.4781,210.0938 Q92.1656,208.4375 92.1656,205.3125 Q92.1656,202.1875 93.4781,200.5313 Q94.8063,198.875 97.3063,198.875 Q98.0094,198.875 98.65,199.0313 Q99.3063,199.1875 99.8688,199.4844 L99.8688,202.2031 Q99.2438,201.625 98.65,201.3594 Q98.0563,201.0781 97.4313,201.0781 Q96.0875,201.0781 95.4,202.1563 Q94.7125,203.2188 94.7125,205.3125 Q94.7125,207.4063 95.4,208.4844 Q96.0875,209.5469 97.4313,209.5469 Q98.0563,209.5469 98.65,209.2813 Q99.2438,209 99.8688,208.4219 L99.8688,211.1406 Z " fill="#000000"/><text fill="#000000" font-family="sans-serif" font-size="12" lengthAdjust="spacingAndGlyphs" textLength="35" x="112.1" y="209.6543">Noter</text><line style="stroke:#A80036;stroke-width:1.5;" x1="77.5" x2="154.5" y1="221.5" y2="221.5"/><text fill="#000000" font-family="sans-serif" font-size="11" lengthAdjust="spacingAndGlyphs" textLength="67" x="82.5" y="235.7104">double note</text><line style="stroke:#A80036;stroke-width:1.5;" x1="77.5" x2="154.5" y1="242.3047" y2="242.3047"/><ellipse cx="39" cy="220" fill="#000000" rx="2" ry="2" style="stroke:none;stroke-width:1.0;"/><!--MD5=[2b6c28d71f3df17a9481105b6a4e9eda]
link Etudiant to Cour--><path codeLine="32" d="M124.402,106.4438 C149.2324,131.0484 178.6586,160.2072 201.4751,182.8163 " fill="none" id="Etudiant-Cour" style="stroke:#A80036;stroke-width:1.0;"/><text fill="#000000" font-family="sans-serif" font-size="13" lengthAdjust="spacingAndGlyphs" textLength="40" x="173" y="149.0669">Suivre</text><text fill="#000000" font-family="sans-serif" font-size="13" lengthAdjust="spacingAndGlyphs" textLength="23" x="106.6295" y="126.2239">1..*</text><text fill="#000000" font-family="sans-serif" font-size="13" lengthAdjust="spacingAndGlyphs" textLength="23" x="169.7425" y="171.9705">0..*</text><!--MD5=[8519b9b1559c23db576357283409d354]
link Cour to Examen--><path codeLine="33" d="M214.2809,257.3259 C198.8382,280.6442 179.0295,310.5555 163.6079,333.8421 " fill="none" id="Cour-Examen" style="stroke:#A80036;stroke-width:1.0;"/><text fill="#000000" font-family="sans-serif" font-size="13" lengthAdjust="spacingAndGlyphs" textLength="66" x="193" y="300.0669">Concerner</text><text fill="#000000" font-family="sans-serif" font-size="13" lengthAdjust="spacingAndGlyphs" textLength="8" x="201.7038" y="276.5786">1</text><text fill="#000000" font-family="sans-serif" font-size="13" lengthAdjust="spacingAndGlyphs" textLength="23" x="142.9427" y="323.0009">1..*</text><!--MD5=[8c96dfeccc7f7ae1bf8cc33965d507a6]
link Etudiant to apoint4829--><path d="M63.3087,106.4438 C54.1416,149.2671 42.0214,205.8856 39.4798,217.7587 " fill="none" id="Etudiant-apoint4829" style="stroke:#A80036;stroke-width:1.0;"/><text fill="#000000" font-family="sans-serif" font-size="13" lengthAdjust="spacingAndGlyphs" textLength="23" x="37.3267" y="126.2239">1..*</text><!--MD5=[2b4afb7227b4b00aebc09c9981e447d1]
link apoint4829 to Examen--><path d="M40.0033,222.052 C42.8018,227.7297 51.0131,244.0814 59,257 C75.3383,283.427 95.4311,312.0468 111.3926,333.9997 " fill="none" id="apoint4829-Examen" style="stroke:#A80036;stroke-width:1.0;"/><text fill="#000000" font-family="sans-serif" font-size="13" lengthAdjust="spacingAndGlyphs" textLength="23" x="81.1822" y="322.9101">0..*</text><!--MD5=[dab0b9d47159e369c1831b4585d73730]
link apoint4829 to Noter--><path d="M41.1055,220 C52.8077,220 64.51,220 76.2123,220 " fill="none" id="apoint4829-Noter" style="stroke:#A80036;stroke-width:1.0;stroke-dasharray:7.0,7.0;"/><!--MD5=[12fd6d0fd867691e46d083a513e532c2]
link Enseignant to Cour--><path codeLine="36" d="M239,93.6007 C239,120.2642 239,156.069 239,182.7635 " fill="none" id="Enseignant-Cour" style="stroke:#A80036;stroke-width:1.0;"/><text fill="#000000" font-family="sans-serif" font-size="13" lengthAdjust="spacingAndGlyphs" textLength="63" x="240" y="149.0669">Enseigner</text><text fill="#000000" font-family="sans-serif" font-size="13" lengthAdjust="spacingAndGlyphs" textLength="8" x="230.3375" y="113.0979">1</text><text fill="#000000" font-family="sans-serif" font-size="13" lengthAdjust="spacingAndGlyphs" textLength="23" x="213.9516" y="171.9083">1..*</text><!--MD5=[d955641036976b1edfa405fc97fd71f4]
@startuml
class Etudiant
{
  String INE
  String nom
  String prenom
  String dateNaissance
}

class Examen
{
  String date
  double coef
}

class Cour
{
  String titre
  int codeModule
}

class Enseignant
{
  String nom
  String prenom
}

class Noter
{
  double note
}

Etudiant "1..*" - - "0..*" Cour: Suivre
Cour "1" - - "1..*" Examen: Concerner
Etudiant "1..*" - - "0..*" Examen
(Etudiant, Examen) . Noter
Enseignant "1" - - "1..*" Cour: Enseigner
@enduml

PlantUML version 1.2020.22(Sun Dec 06 09:36:27 UTC 2020)
(GPL source distribution)
Java Runtime: OpenJDK Runtime Environment
JVM: OpenJDK 64-Bit Server VM
Default Encoding: UTF-8
Language: en
Country: US
--></g></svg>