<?xml version="1.0" encoding="UTF-8" standalone="no"?><svg xmlns="http://www.w3.org/2000/svg" xmlns:xlink="http://www.w3.org/1999/xlink" contentScriptType="application/ecmascript" contentStyleType="text/css" height="245px" preserveAspectRatio="none" style="width:571px;height:245px;" version="1.1" viewBox="0 0 571 245" width="571px" zoomAndPan="magnify"><defs><filter height="300%" id="f1jgow4vl44hjt" width="300%" x="-1" y="-1"><feGaussianBlur result="blurOut" stdDeviation="2.0"/><feColorMatrix in="blurOut" result="blurOut2" type="matrix" values="0 0 0 0 0 0 0 0 0 0 0 0 0 0 0 0 0 0 .4 0"/><feOffset dx="4.0" dy="4.0" in="blurOut2" result="blurOut3"/><feBlend in="SourceGraphic" in2="blurOut3" mode="normal"/></filter></defs><g><!--MD5=[ba36019828680e11e4de56744beebc7a]
class Portable--><rect codeLine="1" fill="#FEFECE" filter="url(#f1jgow4vl44hjt)" height="73.6094" id="Portable" style="stroke:#A80036;stroke-width:1.5;" width="91" x="42.5" y="7"/><ellipse cx="60.2" cy="23" fill="#ADD1B2" rx="11" ry="11" style="stroke:#A80036;stroke-width:1.0;"/><path d="M63.1688,28.6406 Q62.5906,28.9375 61.95,29.0781 Q61.3094,29.2344 60.6063,29.2344 Q58.1063,29.2344 56.7781,27.5938 Q55.4656,25.9375 55.4656,22.8125 Q55.4656,19.6875 56.7781,18.0313 Q58.1063,16.375 60.6063,16.375 Q61.3094,16.375 61.95,16.5313 Q62.6063,16.6875 63.1688,16.9844 L63.1688,19.7031 Q62.5438,19.125 61.95,18.8594 Q61.3563,18.5781 60.7313,18.5781 Q59.3875,18.5781 58.7,19.6563 Q58.0125,20.7188 58.0125,22.8125 Q58.0125,24.9063 58.7,25.9844 Q59.3875,27.0469 60.7313,27.0469 Q61.3563,27.0469 61.95,26.7813 Q62.5438,26.5 63.1688,25.9219 L63.1688,28.6406 Z " fill="#000000"/><text fill="#000000" font-family="sans-serif" font-size="12" lengthAdjust="spacingAndGlyphs" textLength="53" x="74.8" y="27.1543">Portable</text><line style="stroke:#A80036;stroke-width:1.5;" x1="43.5" x2="132.5" y1="39" y2="39"/><text fill="#000000" font-family="sans-serif" font-size="11" lengthAdjust="spacingAndGlyphs" textLength="52" x="48.5" y="53.2104">prixAchat</text><text fill="#000000" font-family="sans-serif" font-size="11" lengthAdjust="spacingAndGlyphs" textLength="79" x="48.5" y="66.0151">valeurActuelle</text><line style="stroke:#A80036;stroke-width:1.5;" x1="43.5" x2="132.5" y1="72.6094" y2="72.6094"/><!--MD5=[4c57ac64fe7d8e85efc399bd1ceeebac]
class Clavier--><rect codeLine="5" fill="#FEFECE" filter="url(#f1jgow4vl44hjt)" height="73.6094" id="Clavier" style="stroke:#A80036;stroke-width:1.5;" width="73" x="282.5" y="158"/><ellipse cx="297.5" cy="174" fill="#ADD1B2" rx="11" ry="11" style="stroke:#A80036;stroke-width:1.0;"/><path d="M300.4688,179.6406 Q299.8906,179.9375 299.25,180.0781 Q298.6094,180.2344 297.9063,180.2344 Q295.4063,180.2344 294.0781,178.5938 Q292.7656,176.9375 292.7656,173.8125 Q292.7656,170.6875 294.0781,169.0313 Q295.4063,167.375 297.9063,167.375 Q298.6094,167.375 299.25,167.5313 Q299.9063,167.6875 300.4688,167.9844 L300.4688,170.7031 Q299.8438,170.125 299.25,169.8594 Q298.6563,169.5781 298.0313,169.5781 Q296.6875,169.5781 296,170.6563 Q295.3125,171.7188 295.3125,173.8125 Q295.3125,175.9063 296,176.9844 Q296.6875,178.0469 298.0313,178.0469 Q298.6563,178.0469 299.25,177.7813 Q299.8438,177.5 300.4688,176.9219 L300.4688,179.6406 Z " fill="#000000"/><text fill="#000000" font-family="sans-serif" font-size="12" lengthAdjust="spacingAndGlyphs" textLength="41" x="311.5" y="178.1543">Clavier</text><line style="stroke:#A80036;stroke-width:1.5;" x1="283.5" x2="354.5" y1="190" y2="190"/><text fill="#000000" font-family="sans-serif" font-size="11" lengthAdjust="spacingAndGlyphs" textLength="24" x="288.5" y="204.2104">type</text><text fill="#000000" font-family="sans-serif" font-size="11" lengthAdjust="spacingAndGlyphs" textLength="45" x="288.5" y="217.0151">touches</text><line style="stroke:#A80036;stroke-width:1.5;" x1="283.5" x2="354.5" y1="223.6094" y2="223.6094"/><!--MD5=[1117fbd3d46789ef7194436d6cdea637]
class Proprietaire--><rect codeLine="9" fill="#FEFECE" filter="url(#f1jgow4vl44hjt)" height="73.6094" id="Proprietaire" style="stroke:#A80036;stroke-width:1.5;" width="106" x="7" y="158"/><ellipse cx="22" cy="174" fill="#ADD1B2" rx="11" ry="11" style="stroke:#A80036;stroke-width:1.0;"/><path d="M24.9688,179.6406 Q24.3906,179.9375 23.75,180.0781 Q23.1094,180.2344 22.4063,180.2344 Q19.9063,180.2344 18.5781,178.5938 Q17.2656,176.9375 17.2656,173.8125 Q17.2656,170.6875 18.5781,169.0313 Q19.9063,167.375 22.4063,167.375 Q23.1094,167.375 23.75,167.5313 Q24.4063,167.6875 24.9688,167.9844 L24.9688,170.7031 Q24.3438,170.125 23.75,169.8594 Q23.1563,169.5781 22.5313,169.5781 Q21.1875,169.5781 20.5,170.6563 Q19.8125,171.7188 19.8125,173.8125 Q19.8125,175.9063 20.5,176.9844 Q21.1875,178.0469 22.5313,178.0469 Q23.1563,178.0469 23.75,177.7813 Q24.3438,177.5 24.9688,176.9219 L24.9688,179.6406 Z " fill="#000000"/><text fill="#000000" font-family="sans-serif" font-size="12" lengthAdjust="spacingAndGlyphs" textLength="74" x="36" y="178.1543">Proprietaire</text><line style="stroke:#A80036;stroke-width:1.5;" x1="8" x2="112" y1="190" y2="190"/><text fill="#000000" font-family="sans-serif" font-size="11" lengthAdjust="spacingAndGlyphs" textLength="25" x="13" y="204.2104">nom</text><text fill="#000000" font-family="sans-serif" font-size="11" lengthAdjust="spacingAndGlyphs" textLength="44" x="13" y="217.0151">prenom</text><line style="stroke:#A80036;stroke-width:1.5;" x1="8" x2="112" y1="223.6094" y2="223.6094"/><!--MD5=[8e5df2442215b5d74e0c8580c0f94562]
class ClavierAzerty--><rect codeLine="13" fill="#FEFECE" filter="url(#f1jgow4vl44hjt)" height="48" id="ClavierAzerty" style="stroke:#A80036;stroke-width:1.5;" width="110" x="183" y="20"/><ellipse cx="198" cy="36" fill="#ADD1B2" rx="11" ry="11" style="stroke:#A80036;stroke-width:1.0;"/><path d="M200.9688,41.6406 Q200.3906,41.9375 199.75,42.0781 Q199.1094,42.2344 198.4063,42.2344 Q195.9063,42.2344 194.5781,40.5938 Q193.2656,38.9375 193.2656,35.8125 Q193.2656,32.6875 194.5781,31.0313 Q195.9063,29.375 198.4063,29.375 Q199.1094,29.375 199.75,29.5313 Q200.4063,29.6875 200.9688,29.9844 L200.9688,32.7031 Q200.3438,32.125 199.75,31.8594 Q199.1563,31.5781 198.5313,31.5781 Q197.1875,31.5781 196.5,32.6563 Q195.8125,33.7188 195.8125,35.8125 Q195.8125,37.9063 196.5,38.9844 Q197.1875,40.0469 198.5313,40.0469 Q199.1563,40.0469 199.75,39.7813 Q200.3438,39.5 200.9688,38.9219 L200.9688,41.6406 Z " fill="#000000"/><text fill="#000000" font-family="sans-serif" font-size="12" lengthAdjust="spacingAndGlyphs" textLength="78" x="212" y="40.1543">ClavierAzerty</text><line style="stroke:#A80036;stroke-width:1.5;" x1="184" x2="292" y1="52" y2="52"/><line style="stroke:#A80036;stroke-width:1.5;" x1="184" x2="292" y1="60" y2="60"/><!--MD5=[eb8b48c43454eeeae58f6b0dcab45db8]
class ClavierQwerty--><rect codeLine="16" fill="#FEFECE" filter="url(#f1jgow4vl44hjt)" height="48" id="ClavierQwerty" style="stroke:#A80036;stroke-width:1.5;" width="115" x="328.5" y="20"/><ellipse cx="343.5" cy="36" fill="#ADD1B2" rx="11" ry="11" style="stroke:#A80036;stroke-width:1.0;"/><path d="M346.4688,41.6406 Q345.8906,41.9375 345.25,42.0781 Q344.6094,42.2344 343.9063,42.2344 Q341.4063,42.2344 340.0781,40.5938 Q338.7656,38.9375 338.7656,35.8125 Q338.7656,32.6875 340.0781,31.0313 Q341.4063,29.375 343.9063,29.375 Q344.6094,29.375 345.25,29.5313 Q345.9063,29.6875 346.4688,29.9844 L346.4688,32.7031 Q345.8438,32.125 345.25,31.8594 Q344.6563,31.5781 344.0313,31.5781 Q342.6875,31.5781 342,32.6563 Q341.3125,33.7188 341.3125,35.8125 Q341.3125,37.9063 342,38.9844 Q342.6875,40.0469 344.0313,40.0469 Q344.6563,40.0469 345.25,39.7813 Q345.8438,39.5 346.4688,38.9219 L346.4688,41.6406 Z " fill="#000000"/><text fill="#000000" font-family="sans-serif" font-size="12" lengthAdjust="spacingAndGlyphs" textLength="83" x="357.5" y="40.1543">ClavierQwerty</text><line style="stroke:#A80036;stroke-width:1.5;" x1="329.5" x2="442.5" y1="52" y2="52"/><line style="stroke:#A80036;stroke-width:1.5;" x1="329.5" x2="442.5" y1="60" y2="60"/><!--MD5=[bd0badc2369d70afa8b778e44125a1c8]
class Touche--><rect codeLine="19" fill="#FEFECE" filter="url(#f1jgow4vl44hjt)" height="48" id="Touche" style="stroke:#A80036;stroke-width:1.5;" width="78" x="479" y="20"/><ellipse cx="494" cy="36" fill="#ADD1B2" rx="11" ry="11" style="stroke:#A80036;stroke-width:1.0;"/><path d="M496.9688,41.6406 Q496.3906,41.9375 495.75,42.0781 Q495.1094,42.2344 494.4063,42.2344 Q491.9063,42.2344 490.5781,40.5938 Q489.2656,38.9375 489.2656,35.8125 Q489.2656,32.6875 490.5781,31.0313 Q491.9063,29.375 494.4063,29.375 Q495.1094,29.375 495.75,29.5313 Q496.4063,29.6875 496.9688,29.9844 L496.9688,32.7031 Q496.3438,32.125 495.75,31.8594 Q495.1563,31.5781 494.5313,31.5781 Q493.1875,31.5781 492.5,32.6563 Q491.8125,33.7188 491.8125,35.8125 Q491.8125,37.9063 492.5,38.9844 Q493.1875,40.0469 494.5313,40.0469 Q495.1563,40.0469 495.75,39.7813 Q496.3438,39.5 496.9688,38.9219 L496.9688,41.6406 Z " fill="#000000"/><text fill="#000000" font-family="sans-serif" font-size="12" lengthAdjust="spacingAndGlyphs" textLength="46" x="508" y="40.1543">Touche</text><line style="stroke:#A80036;stroke-width:1.5;" x1="480" x2="556" y1="52" y2="52"/><line style="stroke:#A80036;stroke-width:1.5;" x1="480" x2="556" y1="60" y2="60"/><!--MD5=[063f029bc3b61e8837f7c989965c20ef]
link ClavierAzerty to Clavier--><path codeLine="22" d="M251.0141,68.2608 C261.3993,87.6209 276.35,115.492 289.5883,140.1707 " fill="none" id="ClavierAzerty-to-Clavier" style="stroke:#A80036;stroke-width:1.0;"/><polygon fill="none" points="295.7682,136.8831,299.0538,157.8164,283.4311,143.501,295.7682,136.8831" style="stroke:#A80036;stroke-width:1.0;"/><!--MD5=[ac12f10ea2750fce4d45d6a6b4b7c2e5]
link ClavierQwerty to Clavier--><path codeLine="23" d="M375.2353,68.2608 C366.7288,87.432 354.5193,114.949 343.6491,139.4475 " fill="none" id="ClavierQwerty-to-Clavier" style="stroke:#A80036;stroke-width:1.0;"/><polygon fill="none" points="350.0087,142.3743,335.4987,157.8164,337.2118,136.6961,350.0087,142.3743" style="stroke:#A80036;stroke-width:1.0;"/><!--MD5=[9e7869527529854ed0390d4e1e2a80fb]
link Portable to Clavier--><path codeLine="25" d="M133.6589,77.0477 C155.8534,92.8314 183.0618,111.7717 208,128 C232.4319,143.8989 260.5498,160.8574 282.3725,173.7351 " fill="none" id="Portable-Clavier" style="stroke:#A80036;stroke-width:1.0;"/><text fill="#000000" font-family="sans-serif" font-size="13" lengthAdjust="spacingAndGlyphs" textLength="59" x="209" y="124.0669">Posséder</text><text fill="#000000" font-family="sans-serif" font-size="13" lengthAdjust="spacingAndGlyphs" textLength="8" x="141.5733" y="78.228">1</text><text fill="#000000" font-family="sans-serif" font-size="13" lengthAdjust="spacingAndGlyphs" textLength="8" x="266.374" y="165.1904">1</text><!--MD5=[4cb57678fa8828409113b330ec56060e]
link Portable to Proprietaire--><path codeLine="26" d="M67.3156,81.2615 C63.0583,90.6883 59.2043,100.9864 57,111 C53.6746,126.1065 53.6173,143.1045 54.692,157.8377 " fill="none" id="Portable-Proprietaire" style="stroke:#A80036;stroke-width:1.0;"/><text fill="#000000" font-family="sans-serif" font-size="13" lengthAdjust="spacingAndGlyphs" textLength="67" x="58" y="124.0669">Appartenir</text><text fill="#000000" font-family="sans-serif" font-size="13" lengthAdjust="spacingAndGlyphs" textLength="23" x="38.9851" y="100.7854">0..*</text><text fill="#000000" font-family="sans-serif" font-size="13" lengthAdjust="spacingAndGlyphs" textLength="8" x="45.034" y="146.9957">1</text><!--MD5=[432b68e2220707315b74d5daf6dfa90a]
link Touche to Clavier--><path codeLine="27" d="M486.0272,68.2608 C450.4298,95.2719 392.999,138.85 355.6228,167.2108 " fill="none" id="Touche-Clavier" style="stroke:#A80036;stroke-width:1.0;"/><text fill="#000000" font-family="sans-serif" font-size="13" lengthAdjust="spacingAndGlyphs" textLength="66" x="425" y="124.0669">Composer</text><text fill="#000000" font-family="sans-serif" font-size="13" lengthAdjust="spacingAndGlyphs" textLength="7" x="470.3807" y="88.0856">*</text><text fill="#000000" font-family="sans-serif" font-size="13" lengthAdjust="spacingAndGlyphs" textLength="8" x="363.6204" y="157.3817">1</text><!--MD5=[def2243e101b7e03770435fb529ca4d0]
@startuml
class Portable {
  prixAchat
  valeurActuelle
}
class Clavier {
  type
  touches
}
class Proprietaire {
  nom
  prenom
}
class ClavierAzerty{

}
class ClavierQwerty{

}
class Touche{
  
}
ClavierAzerty - -|> Clavier
ClavierQwerty - -|> Clavier

Portable "1" - - "1" Clavier : Posséder
Portable "0..*" - - "1" Proprietaire : Appartenir
Touche "*" - - "1" Clavier : Composer
@enduml

PlantUML version 1.2020.22(Sun Dec 06 09:36:27 UTC 2020)
(GPL source distribution)
Java Runtime: OpenJDK Runtime Environment
JVM: OpenJDK 64-Bit Server VM
Default Encoding: UTF-8
Language: en
Country: US
--></g></svg>